# xmcd
#
# Track frame offsets:
#	150
#	16094
#	31758
#	48749
#	69770
#	86605
#	108083
#	122866
#	140242
#	162741
#	178059
#	193336
#	213572
#	233358
#	250305
#	265825
#	281712
#	298116
#	311974
#	330047
#
# Disc length: 4651 seconds
#
# Revision: 0
# Processed by: cddbd v1.5.2PL0 Copyright (c) Steve Scherf et al.
# Submitted via: EZCDAudioConverter 2.2.2.1
#
DISCID=2a122914
DTITLE=Alvaro Torres - Grandes Exitos
DYEAR=2010
DGENRE=Hispano
TTITLE0=Hazme olvidarla
TTITLE1=Nada se compara contigo
TTITLE2=De punta a punta
TTITLE3=Te dejo libre
TTITLE4=De que me sirve quererte
TTITLE5=Si estuvieras conmigo
TTITLE6=Mi amor por ti (Feat. Marisela)
TTITLE7=Esa mujer
TTITLE8=Ni tu ni ella
TTITLE9=Amor que mata
TTITLE10=Mi verdadero amor
TTITLE11=Te olvidare
TTITLE12=He vivido esperando por ti
TTITLE13=Tres
TTITLE14=Adicto
TTITLE15=Pienso en ti
TTITLE16=Soy un hombre muerto
TTITLE17=Voy a conseguir tu amor
TTITLE18=Ya no puedo vivir sin ti
TTITLE19=El ultimo romantico
EXTD=
EXTT0=
EXTT1=
EXTT2=
EXTT3=
EXTT4=
EXTT5=
EXTT6=
EXTT7=
EXTT8=
EXTT9=
EXTT10=
EXTT11=
EXTT12=
EXTT13=
EXTT14=
EXTT15=
EXTT16=
EXTT17=
EXTT18=
EXTT19=
PLAYORDER=
